grf
version=1
nRows=12
nColumns=37
inDegrees=no
endheader
time	ground_force_1_vx	ground_force_1_vy	ground_force_1_vz	ground_force_1_px	ground_force_1_py	ground_force_1_pz	ground_moment_1_mx	ground_moment_1_my	ground_moment_1_mz	ground_force_2_vx	ground_force_2_vy	ground_force_2_vz	ground_force_2_px	ground_force_2_py	ground_force_2_pz	ground_moment_2_mx	ground_moment_2_my	ground_moment_2_mz	ground_force_3_vx	ground_force_3_vy	ground_force_3_vz	ground_force_3_px	ground_force_3_py	ground_force_3_pz	ground_moment_3_mx	ground_moment_3_my	ground_moment_3_mz	ground_force_4_vx	ground_force_4_vy	ground_force_4_vz	ground_force_4_px	ground_force_4_py	ground_force_4_pz	ground_moment_4_mx	ground_moment_4_my	ground_moment_4_mz
      4.20000000	      0.00000000	     -0.00000000	      0.00000000	      0.00000000	      0.00000000	      0.00000000	      0.00000000	      0.00000000	      0.00000000	     -9.65132904	     56.63408279	   -369.29483032	   -336.03418777	  -1183.13029544	      0.00000000	     -0.00000000	      0.00000000	   7691.74634463	      2.27044857	    -58.57386037	   -444.88473511	   -352.58410998	   -717.82516161	      0.00000000	      0.00000000	     -0.00000000	  -7973.02184812	      0.00000000	     -0.00000000	      0.00000000	      0.00000000	      0.00000000	      0.00000000	      0.00000000	      0.00000000	      0.00000000
      4.21000000	      0.00000000	     -0.00000000	      0.00000000	      0.00000000	      0.00000000	      0.00000000	      0.00000000	      0.00000000	      0.00000000	    -10.43419552	     56.04656982	   -367.72549438	   -336.54691510	  -1184.22697952	      0.00000000	      0.00000000	      0.00000000	   7730.66348838	      1.84941357	    -57.95549027	   -441.74185181	   -352.87730750	   -718.24746237	      0.00000000	      0.00000000	     -0.00000000	  -7852.19767312	      0.00000000	     -0.00000000	      0.00000000	      0.00000000	      0.00000000	      0.00000000	      0.00000000	      0.00000000	      0.00000000
      4.22000000	      0.00000000	     -0.00000000	      0.00000000	      0.00000000	      0.00000000	      0.00000000	      0.00000000	      0.00000000	      0.00000000	    -10.70146275	     55.85214996	   -367.64529419	   -336.24127864	  -1183.47998469	      0.00000000	      0.00000000	     -0.00000000	   7566.05838417	      2.21776459	    -57.53005238	   -441.05633545	   -352.83086843	   -717.67900586	      0.00000000	     -0.00000000	     -0.00000000	  -7769.34856354	      0.00000000	     -0.00000000	      0.00000000	      0.00000000	      0.00000000	      0.00000000	      0.00000000	      0.00000000	      0.00000000
      4.23000000	      0.00000000	     -0.00000000	      0.00000000	      0.00000000	      0.00000000	      0.00000000	      0.00000000	      0.00000000	      0.00000000	    -10.29571056	     55.43910980	   -365.81408691	   -336.85902556	  -1183.73864845	      0.00000000	      0.00000000	      0.00000000	   7404.28483576	      2.35526871	    -57.39290639	   -438.12124634	   -353.75437133	   -718.60773527	      0.00000000	      0.00000000	     -0.00000000	  -7824.30303423	      0.00000000	     -0.00000000	      0.00000000	      0.00000000	      0.00000000	      0.00000000	      0.00000000	      0.00000000	      0.00000000
      4.24000000	      0.00000000	     -0.00000000	      0.00000000	      0.00000000	      0.00000000	      0.00000000	      0.00000000	      0.00000000	      0.00000000	     -9.90236664	     54.99785995	   -361.61004639	   -337.09262655	  -1182.36898828	      0.00000000	      0.00000000	     -0.00000000	   7523.08596780	      2.22175317	    -56.68247624	   -436.37600708	   -354.04181457	   -718.49597403	      0.00000000	      0.00000000	     -0.00000000	  -7670.48538862	      0.00000000	     -0.00000000	      0.00000000	      0.00000000	      0.00000000	      0.00000000	      0.00000000	      0.00000000	      0.00000000
      4.25000000	      0.00000000	     -0.00000000	      0.00000000	      0.00000000	      0.00000000	      0.00000000	      0.00000000	      0.00000000	      0.00000000	     -9.69207573	     54.13399887	   -362.36260986	   -337.53400206	  -1183.03469122	      0.00000000	      0.00000000	      0.00000000	   7523.19240990	      1.95598312	    -56.43756121	   -436.94891357	   -354.65254389	   -719.63204150	      0.00000000	      0.00000000	     -0.00000000	  -7468.96431589	      0.00000000	     -0.00000000	      0.00000000	      0.00000000	      0.00000000	      0.00000000	      0.00000000	      0.00000000	      0.00000000
      4.26000000	      0.00000000	     -0.00000000	      0.00000000	      0.00000000	      0.00000000	      0.00000000	      0.00000000	      0.00000000	      0.00000000	     -8.90524101	     53.93968964	   -361.30310059	   -337.61496455	  -1183.14452623	      0.00000000	     -0.00000000	      0.00000000	   7259.35553692	      2.53619102	    -56.84291099	   -440.26184082	   -355.29523384	   -718.82464314	      0.00000000	     -0.00000000	     -0.00000000	  -7456.57991922	      0.00000000	     -0.00000000	      0.00000000	      0.00000000	      0.00000000	      0.00000000	      0.00000000	      0.00000000	      0.00000000
      4.27000000	      0.00000000	     -0.00000000	      0.00000000	      0.00000000	      0.00000000	      0.00000000	      0.00000000	      0.00000000	      0.00000000	     -8.79507351	     53.84017563	   -359.53717041	   -339.11442815	  -1182.43666318	      0.00000000	      0.00000000	      0.00000000	   7284.90269618	      2.69780190	    -56.50523400	   -437.89813232	   -356.16088510	   -720.85065931	      0.00000000	      0.00000000	     -0.00000000	  -7413.28093318	      0.00000000	     -0.00000000	      0.00000000	      0.00000000	      0.00000000	      0.00000000	      0.00000000	      0.00000000	      0.00000000
      4.28000000	      0.00000000	     -0.00000000	      0.00000000	      0.00000000	      0.00000000	      0.00000000	      0.00000000	      0.00000000	      0.00000000	     -8.04448509	     52.97450638	   -359.53717041	   -339.57863172	  -1183.43738551	      0.00000000	      0.00000000	      0.00000000	   7357.87588755	      2.07689461	    -56.24006290	   -439.08886719	   -356.10971005	   -719.67750112	      0.00000000	      0.00000000	     -0.00000000	  -7115.43291028	      0.00000000	     -0.00000000	      0.00000000	      0.00000000	      0.00000000	      0.00000000	      0.00000000	      0.00000000	      0.00000000
      4.29000000	      0.00000000	     -0.00000000	      0.00000000	      0.00000000	      0.00000000	      0.00000000	      0.00000000	      0.00000000	      0.00000000	     -7.83510447	     52.44554138	   -356.96679688	   -339.88514611	  -1182.12988669	      0.00000000	      0.00000000	     -0.00000000	   7428.93261390	      2.69229926	    -55.79827904	   -436.58361816	   -357.09130272	   -720.40906893	      0.00000000	      0.00000000	     -0.00000000	  -7129.59294070	      0.00000000	     -0.00000000	      0.00000000	      0.00000000	      0.00000000	      0.00000000	      0.00000000	      0.00000000	      0.00000000
      4.30000000	      0.00000000	     -0.00000000	      0.00000000	      0.00000000	      0.00000000	      0.00000000	      0.00000000	      0.00000000	      0.00000000	     -7.99197817	     52.87600327	   -358.53811646	   -339.36410818	  -1183.25188344	      0.00000000	      0.00000000	      0.00000000	   7282.41854065	      3.29763953	    -55.43881254	   -434.83816528	   -357.09608568	   -720.06956126	      0.00000000	     -0.00000000	     -0.00000000	  -7063.73545129	      0.00000000	     -0.00000000	      0.00000000	      0.00000000	      0.00000000	      0.00000000	      0.00000000	      0.00000000	      0.00000000
      4.31000000	      0.00000000	     -0.00000000	      0.00000000	      0.00000000	      0.00000000	      0.00000000	      0.00000000	      0.00000000	      0.00000000	     -7.97002029	     53.13685226	   -358.36422729	   -340.17308805	  -1183.14168859	      0.00000000	      0.00000000	      0.00000000	   7263.05555785	      3.63713737	    -55.03070482	   -432.07009888	   -358.04724520	   -720.68397289	      0.00000000	      0.00000000	     -0.00000000	  -7090.16147871	      0.00000000	     -0.00000000	      0.00000000	      0.00000000	      0.00000000	      0.00000000	      0.00000000	      0.00000000	      0.00000000
